<?xml version="1.0" encoding="UTF-8" standalone="no"?>
<!DOCTYPE svg PUBLIC "-//W3C//DTD SVG 1.1//EN" "http://www.w3.org/Graphics/SVG/1.1/DTD/svg11.dtd">
<svg width="100%" height="100%" viewBox="0 0 520 847" version="1.1" xmlns="http://www.w3.org/2000/svg" xmlns:xlink="http://www.w3.org/1999/xlink" xml:space="preserve" xmlns:serif="http://www.serif.com/" style="fill-rule:evenodd;clip-rule:evenodd;stroke-linecap:round;stroke-linejoin:round;stroke-miterlimit:1.5;">
    <g transform="matrix(1,0,0,1,-6554,-416.607)">
        <g transform="matrix(1,0,0,1,5227.53,0)">
            <g transform="matrix(1,0,0,0.904434,-5227.53,42.4259)">
                <path d="M6813.78,443.943L7046.22,908.824L6581.34,908.824L6813.78,443.943Z" style="fill:rgb(91,91,91);stroke:rgb(91,91,91);stroke-width:57.34px;"/>
            </g>
        </g>
        <g transform="matrix(1,0,0,1,5227.53,0)">
            <g transform="matrix(1,0,0,1,-5227.53,0)">
                <path d="M6675.13,864.397L6675.13,1235.6" style="fill:none;stroke:rgb(91,91,91);stroke-width:54.67px;"/>
            </g>
        </g>
        <g transform="matrix(1,0,0,1,5227.53,0)">
            <g transform="matrix(1,0,0,1,-4953.57,0)">
                <path d="M6675.13,864.397L6675.13,1235.6" style="fill:none;stroke:rgb(91,91,91);stroke-width:54.67px;"/>
            </g>
        </g>
        <g transform="matrix(1,0,0,1,5227.53,0)">
            <g transform="matrix(1,0,0,0.860368,-5088.88,120.697)">
                <path d="M6675.13,864.397L6675.13,1235.6" style="fill:none;stroke:rgb(91,91,91);stroke-width:58.61px;"/>
            </g>
        </g>
    </g>
</svg>
