<?xml version="1.0" encoding="UTF-8" standalone="no"?>
<!DOCTYPE svg PUBLIC "-//W3C//DTD SVG 1.1//EN" "http://www.w3.org/Graphics/SVG/1.1/DTD/svg11.dtd">
<svg width="100%" height="100%" viewBox="0 0 1899 1899" version="1.1" xmlns="http://www.w3.org/2000/svg" xmlns:xlink="http://www.w3.org/1999/xlink" xml:space="preserve" xmlns:serif="http://www.serif.com/" style="fill-rule:evenodd;clip-rule:evenodd;stroke-linecap:round;stroke-linejoin:round;stroke-miterlimit:1.5;">
    <g transform="matrix(1,0,0,1,-5455.24,-1502.17)">
        <g transform="matrix(1,0,0,1,5227.53,0)">
            <g transform="matrix(1.04059,0,0,-1.04059,-148.396,4953.98)">
                <rect x="361.434" y="1492.88" width="1824.29" height="1824.29" style="fill:none;"/>
            </g>
        </g>
        <g transform="matrix(1,0,0,1,5227.53,0)">
            <g transform="matrix(1.04059,0,0,-1.04059,-148.282,4953.98)">
                <rect x="361.434" y="1492.88" width="1824.29" height="1824.29" style="fill:none;"/>
            </g>
        </g>
        <g transform="matrix(1,0,0,1,5227.53,0)">
            <g transform="matrix(6.12323e-17,-1,-1,-6.12323e-17,3574.16,3724.91)">
                <g transform="matrix(0.407742,0,0,0.399125,754.288,1437.26)">
                    <path d="M2185.73,2405.03C2185.73,1901.6 1785.65,1492.88 1292.86,1492.88L1254.3,1492.88C761.515,1492.88 361.434,1901.6 361.434,2405.03C361.434,2908.45 761.515,3317.17 1254.3,3317.17L1292.86,3317.17C1785.65,3317.17 2185.73,2908.45 2185.73,2405.03Z" style="fill:none;stroke:rgb(91,91,91);stroke-width:156.75px;"/>
                </g>
                <path d="M1030.77,2119.15C878.196,2256.05 708.29,2346.72 523.369,2397.35C713.239,2434.74 881.335,2530.19 1030.77,2675.41C945.88,2599.05 898.121,2508.21 901.66,2397.35C895.344,2294.52 942.188,2202.57 1030.77,2119.15Z" style="fill:rgb(91,91,91);stroke:rgb(91,91,91);stroke-width:63.33px;"/>
            </g>
        </g>
        <g transform="matrix(1,0,0,1,5227.53,0)">
            <g transform="matrix(6.12323e-17,-1,-1,-6.12323e-17,3574.27,3724.91)">
                <g transform="matrix(0.407742,0,0,0.399125,754.288,1437.26)">
                    <path d="M2185.73,2405.03C2185.73,1901.6 1785.65,1492.88 1292.86,1492.88L1254.3,1492.88C761.515,1492.88 361.434,1901.6 361.434,2405.03C361.434,2908.45 761.515,3317.17 1254.3,3317.17L1292.86,3317.17C1785.65,3317.17 2185.73,2908.45 2185.73,2405.03Z" style="fill:none;stroke:rgb(91,91,91);stroke-width:156.75px;"/>
                </g>
                <path d="M1030.77,2119.15C878.196,2256.05 708.29,2346.72 523.369,2397.35C713.239,2434.74 881.335,2530.19 1030.77,2675.41C945.88,2599.05 898.121,2508.21 901.66,2397.35C895.344,2294.52 942.188,2202.57 1030.77,2119.15Z" style="fill:rgb(91,91,91);stroke:rgb(91,91,91);stroke-width:63.33px;"/>
            </g>
        </g>
        <g transform="matrix(1,0,0,1,5227.53,0)">
            <g transform="matrix(0.776834,0,0,-1,-3734.56,5032.29)">
                <path d="M6205.15,2942.28C6286.58,2968.98 6361.64,2964.83 6439.88,2942.28C6337.37,2971.83 6349.95,3069.7 6439.88,3102.65L6611.31,3153.2C6418.78,3083.93 6226.25,3084.44 6033.73,3153.2L6205.15,3102.65C6308.86,3072.07 6301.74,2973.95 6205.15,2942.28Z" style="fill:rgb(91,91,91);stroke:rgb(91,91,91);stroke-width:70.73px;"/>
            </g>
        </g>
        <g transform="matrix(1,0,0,1,5227.53,0)">
            <g>
                <g transform="matrix(1,0,0,1,-5244.08,7.89811)">
                    <path d="M6213.51,2590.54C6351.96,2492.66 6490.42,2498.87 6628.87,2590.54" style="fill:none;stroke:rgb(91,91,91);stroke-width:63.33px;"/>
                </g>
                <g transform="matrix(1,0,0,1,-4976.77,0)">
                    <circle cx="6271.76" cy="2283.5" r="16.783" style="fill:rgb(91,91,91);stroke:rgb(91,91,91);stroke-width:63.33px;"/>
                </g>
            </g>
            <g transform="matrix(1,0,0,1,-5227.53,0)">
                <circle cx="6271.76" cy="2283.5" r="16.783" style="fill:rgb(91,91,91);stroke:rgb(91,91,91);stroke-width:63.33px;"/>
            </g>
        </g>
    </g>
</svg>
