<?xml version="1.0" encoding="UTF-8" standalone="no"?>
<!DOCTYPE svg PUBLIC "-//W3C//DTD SVG 1.1//EN" "http://www.w3.org/Graphics/SVG/1.1/DTD/svg11.dtd">
<svg width="100%" height="100%" viewBox="0 0 1899 1899" version="1.1" xmlns="http://www.w3.org/2000/svg" xmlns:xlink="http://www.w3.org/1999/xlink" xml:space="preserve" xmlns:serif="http://www.serif.com/" style="fill-rule:evenodd;clip-rule:evenodd;stroke-linecap:round;stroke-linejoin:round;stroke-miterlimit:1.5;">
    <g transform="matrix(1,0,0,1,-324.412,-1455.86)">
        <g transform="matrix(1.16287,0,0,1.16287,-67.2905,-302.895)">
            <rect x="316.686" y="1214.91" width="1183.95" height="1183.95" style="fill:none;"/>
        </g>
        <g transform="matrix(1,0,0,1,83.235,0)">
            <path d="M1665.3,2182.4C1672.39,2126.67 1708.61,2090.01 1763.97,2092.62C1820.26,2098.3 1845.18,2131.43 1849.7,2182.4C1848.17,2233.67 1819.15,2273.79 1763.97,2273.79C1646.58,2275.51 1545.18,2223.75 1438.52,2127.06L1438.52,2123.78C1368.69,2062.23 1288.65,2030.92 1194.67,2033.21C1086.1,2032.34 987.561,2067.98 916.957,2148.2C807.086,2251.76 623.027,2343.53 439.558,2397.22C623.64,2438.9 797.455,2521.16 920.031,2649.37C999.64,2732.63 1102.08,2765.58 1202.87,2761.23C1277.79,2759.88 1337.97,2739.48 1397.36,2701.9C1559.82,2596.51 1739.06,2500.96 1951.39,2520.33C1986.59,2524.65 2002.82,2543.25 2011.41,2579.65C2016.95,2610.99 2000.72,2647.39 1952.98,2655.82C1917.87,2659.52 1884.31,2643.39 1876.15,2606.65" style="fill:none;stroke:rgb(179,179,179);stroke-width:63.33px;"/>
            <g transform="matrix(1,0,0,1,786.684,766.714)">
                <path d="M775.54,1624.92C939.147,1652.04 1052.99,1643.82 1230.08,1630.51C1285.26,1630.51 1314.28,1590.38 1315.81,1539.12C1311.29,1488.14 1286.36,1455.02 1230.08,1449.34C1174.71,1446.73 1138.5,1483.39 1131.41,1539.12" style="fill:none;stroke:rgb(179,179,179);stroke-width:63.33px;"/>
            </g>
        </g>
        <g transform="matrix(1.04059,0,0,1.04059,-51.6923,-97.6156)">
            <rect x="361.434" y="1492.88" width="1824.29" height="1824.29" style="fill:none;"/>
        </g>
        <g transform="matrix(0.407742,0,0,0.399125,754.288,1437.26)">
            <path d="M2185.73,2405.03C2185.73,1901.6 1785.65,1492.88 1292.86,1492.88L1254.3,1492.88C761.515,1492.88 361.434,1901.6 361.434,2405.03C361.434,2908.45 761.515,3317.17 1254.3,3317.17L1292.86,3317.17C1785.65,3317.17 2185.73,2908.45 2185.73,2405.03Z" style="fill:none;stroke:rgb(91,91,91);stroke-width:156.75px;"/>
        </g>
        <path d="M1030.77,2119.15C878.196,2256.05 708.29,2346.72 523.369,2397.35C713.239,2434.74 881.335,2530.19 1030.77,2675.41C945.88,2599.05 898.121,2508.21 901.66,2397.35C895.344,2294.52 942.188,2202.57 1030.77,2119.15Z" style="fill:rgb(91,91,91);stroke:rgb(91,91,91);stroke-width:63.33px;"/>
    </g>
</svg>
